<?xml version="1.0" encoding="UTF-8" standalone="no"?>
<!DOCTYPE svg PUBLIC "-//W3C//DTD SVG 1.1//EN" "http://www.w3.org/Graphics/SVG/1.1/DTD/svg11.dtd">
<svg xmlns="http://www.w3.org/2000/svg" version="1.1" viewBox="0.00 0.00 978.00 230.00">
<circle fill="#000000" cx="202.77" cy="34.12" r="7.20"/>
<circle fill="#000000" cx="175.56" cy="38.53" r="4.93"/>
<circle fill="#000000" cx="192.11" cy="51.38" r="4.89"/>
<path fill="#000000" d="
  M 113.48 111.62
  L 104.51 111.62
  A 0.09 0.09 0.0 0 1 104.44 111.48
  Q 112.06 100.32 121.10 93.57
  Q 135.84 82.55 154.65 82.08
  A 0.91 0.91 0.0 0 0 155.50 81.42
  L 157.24 75.13
  A 1.21 1.21 0.0 0 0 157.02 74.06
  Q 149.92 65.27 157.24 57.01
  Q 161.57 52.12 168.50 53.79
  Q 173.70 55.05 191.50 60.02
  C 198.08 61.86 204.38 64.18 205.20 72.01
  Q 206.08 80.44 198.96 84.24
  Q 198.84 84.31 196.17 85.66
  A 1.43 1.41 84.8 0 0 195.44 86.55
  L 193.83 92.36
  A 0.93 0.93 0.0 0 0 194.21 93.37
  Q 212.03 105.26 217.95 125.93
  A 0.71 0.71 0.0 0 1 217.19 126.83
  L 211.11 126.15
  A 1.95 1.95 0.0 0 1 209.48 124.86
  Q 203.14 107.23 186.25 97.05
  A 1.54 1.54 0.0 0 1 185.56 95.32
  L 190.22 78.48
  A 0.63 0.63 0.0 0 1 190.95 78.04
  C 198.68 79.66 200.00 70.16 193.64 68.36
  Q 173.72 62.73 168.39 61.40
  C 161.15 59.60 158.12 68.51 164.85 70.85
  A 0.90 0.89 17.6 0 1 165.42 71.94
  L 160.82 88.58
  A 1.04 1.03 -81.0 0 1 159.77 89.35
  Q 130.37 88.25 113.94 111.38
  A 0.57 0.56 -72.1 0 1 113.48 111.62
  Z"
/>
<rect fill="#000000" x="518.31" y="78.41" width="12.68" height="11.88" rx="0.58"/>
<path fill="#000000" d="
  M 791.35 144.11
  L 783.05 144.11
  A 0.52 0.52 0.0 0 1 782.53 143.59
  L 782.53 80.37
  A 0.83 0.83 0.0 0 1 783.36 79.54
  L 794.57 79.54
  A 0.79 0.78 -0.0 0 1 795.36 80.32
  L 795.36 98.71
  A 0.32 0.31 -16.7 0 0 795.85 98.97
  Q 802.91 94.43 811.24 95.49
  Q 827.46 97.57 832.25 113.03
  C 834.09 118.95 833.47 126.33 830.55 132.04
  Q 824.08 144.68 808.97 145.33
  Q 800.16 145.72 793.96 140.36
  A 0.46 0.46 0.0 0 0 793.23 140.55
  L 792.17 143.52
  A 0.89 0.86 -79.9 0 1 791.35 144.11
  Z
  M 820.27 120.30
  A 12.99 12.99 0.0 0 0 807.28 107.31
  A 12.99 12.99 0.0 0 0 794.29 120.30
  A 12.99 12.99 0.0 0 0 807.28 133.29
  A 12.99 12.99 0.0 0 0 820.27 120.30
  Z"
/>
<path fill="#000000" d="
  M 285.77 144.01
  L 273.71 144.01
  A 0.55 0.55 0.0 0 1 273.16 143.46
  L 273.16 83.06
  A 0.53 0.52 -0.0 0 1 273.69 82.54
  Q 280.12 82.58 293.47 82.51
  Q 301.42 82.46 305.34 84.12
  C 323.88 91.93 322.48 118.43 302.93 124.05
  C 298.54 125.32 290.80 124.90 287.04 124.80
  A 0.62 0.61 0.5 0 0 286.41 125.41
  L 286.41 143.36
  A 0.65 0.64 -90.0 0 1 285.77 144.01
  Z
  M 286.40 95.46
  L 286.42 112.02
  A 0.58 0.58 0.0 0 0 287.01 112.60
  L 296.12 112.58
  A 8.85 8.41 -0.1 0 0 304.95 104.15
  L 304.95 103.25
  A 8.85 8.41 -0.1 0 0 296.08 94.86
  L 286.97 94.88
  A 0.58 0.58 0.0 0 0 286.40 95.46
  Z"
/>
<path fill="#000000" d="
  M 690.86 131.70
  L 713.33 131.70
  A 0.55 0.55 0.0 0 1 713.88 132.25
  L 713.88 143.45
  A 0.55 0.55 0.0 0 1 713.33 144.00
  L 677.58 144.00
  A 0.55 0.55 0.0 0 1 677.03 143.45
  L 677.03 83.08
  A 0.55 0.55 0.0 0 1 677.58 82.53
  L 689.76 82.53
  A 0.55 0.55 0.0 0 1 690.31 83.08
  L 690.31 131.15
  A 0.55 0.55 0.0 0 0 690.86 131.70
  Z"
/>
<path fill="#000000" d="
  M 508.54 106.91
  L 496.85 106.91
  A 0.48 0.48 0.0 0 0 496.37 107.39
  Q 496.30 116.56 496.38 125.87
  Q 496.42 130.20 500.33 131.99
  C 502.60 133.03 506.77 132.40 508.82 132.60
  A 0.67 0.67 0.0 0 1 509.47 133.27
  L 509.54 143.28
  A 0.70 0.70 0.0 0 1 508.85 143.99
  C 498.00 144.07 489.45 144.51 485.01 135.25
  Q 483.27 131.61 483.49 121.51
  Q 483.59 116.66 483.52 107.52
  A 0.62 0.62 0.0 0 0 482.90 106.91
  L 475.67 106.91
  A 0.64 0.64 0.0 0 1 475.04 106.38
  Q 474.72 104.52 475.35 103.82
  Q 478.19 100.69 493.51 84.51
  A 1.54 1.54 0.0 0 1 496.17 85.57
  L 496.17 95.92
  A 0.68 0.68 0.0 0 0 496.85 96.60
  L 508.65 96.60
  A 0.58 0.57 0.0 0 1 509.23 97.17
  L 509.23 106.22
  A 0.69 0.69 0.0 0 1 508.54 106.91
  Z"
/>
<circle fill="#000000" cx="169.69" cy="94.50" r="4.13"/>
<path fill="#000000" d="
  M 359.3604 120.1951
  A 25.76 25.19 -179.7 0 1 385.2519 95.1403
  A 25.76 25.19 -179.7 0 1 410.8796 120.4649
  A 25.76 25.19 -179.7 0 1 384.9881 145.5197
  A 25.76 25.19 -179.7 0 1 359.3604 120.1951
  Z
  M 385.0287 107.2203
  A 13.08 12.72 -90.4 0 0 372.4003 120.3888
  A 13.08 12.72 -90.4 0 0 385.2113 133.3797
  A 13.08 12.72 -90.4 0 0 397.8397 120.2112
  A 13.08 12.72 -90.4 0 0 385.0287 107.2203
  Z"
/>
<path fill="#000000" d="
  M 468.11 120.33
  Q 468.08 132.02 468.12 142.96
  A 1.10 1.10 0.0 0 1 467.02 144.06
  L 459.31 144.06
  A 1.07 1.06 -11.0 0 1 458.32 143.40
  L 457.11 140.37
  A 0.44 0.44 0.0 0 0 456.43 140.19
  C 439.39 153.06 416.75 140.83 416.75 120.32
  C 416.75 99.81 439.40 87.58 456.44 100.46
  A 0.44 0.44 0.0 0 0 457.12 100.28
  L 458.33 97.25
  A 1.07 1.06 11.0 0 1 459.32 96.59
  L 467.03 96.59
  A 1.10 1.10 0.0 0 1 468.13 97.70
  Q 468.08 108.64 468.11 120.33
  Z
  M 455.64 120.29
  A 13.00 13.00 0.0 0 0 442.64 107.29
  A 13.00 13.00 0.0 0 0 429.64 120.29
  A 13.00 13.00 0.0 0 0 442.64 133.29
  A 13.00 13.00 0.0 0 0 455.64 120.29
  Z"
/>
<path fill="#000000" d="
  M 591.49 120.31
  C 591.49 99.81 614.13 87.59 631.17 100.46
  A 0.44 0.44 0.0 0 0 631.85 100.28
  L 633.06 97.25
  A 1.07 1.06 11.0 0 1 634.05 96.59
  L 641.75 96.59
  A 1.10 1.10 0.0 0 1 642.86 97.70
  Q 642.81 108.64 642.84 120.32
  Q 642.81 132.01 642.85 142.95
  A 1.10 1.10 0.0 0 1 641.75 144.05
  L 634.04 144.05
  A 1.07 1.06 -11.0 0 1 633.05 143.39
  L 631.84 140.36
  A 0.44 0.44 0.0 0 0 631.16 140.18
  C 614.12 153.05 591.48 140.82 591.49 120.31
  Z
  M 630.38 120.29
  A 12.99 12.99 0.0 0 0 617.39 107.30
  A 12.99 12.99 0.0 0 0 604.40 120.29
  A 12.99 12.99 0.0 0 0 617.39 133.28
  A 12.99 12.99 0.0 0 0 630.38 120.29
  Z"
/>
<path fill="#000000" d="
  M 718.87 120.32
  C 718.88 99.80 741.52 87.58 758.57 100.46
  A 0.44 0.44 0.0 0 0 759.24 100.28
  L 760.45 97.25
  A 1.07 1.06 11.0 0 1 761.44 96.59
  L 769.15 96.59
  A 1.10 1.10 0.0 0 1 770.26 97.69
  Q 770.21 108.63 770.24 120.32
  Q 770.21 132.01 770.25 142.95
  A 1.10 1.10 0.0 0 1 769.15 144.06
  L 761.44 144.06
  A 1.07 1.06 -11.0 0 1 760.45 143.40
  L 759.24 140.37
  A 0.44 0.44 0.0 0 0 758.56 140.19
  C 741.51 153.06 718.87 140.83 718.87 120.32
  Z
  M 757.76 120.30
  A 13.00 13.00 0.0 0 0 744.76 107.30
  A 13.00 13.00 0.0 0 0 731.76 120.30
  A 13.00 13.00 0.0 0 0 744.76 133.30
  A 13.00 13.00 0.0 0 0 757.76 120.30
  Z"
/>
<path fill="#000000" d="
  M 326.88 143.29
  L 326.88 97.16
  A 0.57 0.56 -0.0 0 1 327.45 96.60
  L 334.42 96.60
  A 0.88 0.87 -10.9 0 1 335.23 97.14
  L 337.16 101.95
  A 0.39 0.38 -36.6 0 0 337.81 102.04
  C 341.92 96.93 348.93 95.58 355.09 96.51
  A 0.32 0.31 4.3 0 1 355.36 96.82
  L 355.36 107.88
  A 0.54 0.54 0.0 0 1 354.86 108.42
  Q 354.03 108.48 349.48 108.45
  Q 340.03 108.41 339.81 117.87
  Q 339.47 132.39 339.79 143.41
  A 0.58 0.58 0.0 0 1 339.21 144.00
  L 327.59 144.00
  A 0.71 0.71 0.0 0 1 326.88 143.29
  Z"
/>
<rect fill="#000000" x="518.31" y="96.61" width="12.80" height="47.42" rx="0.63"/>
<path fill="#000000" d="
  M 562.98 127.89
  Q 563.04 127.89 563.09 127.87
  A 0.26 0.23 -88.5 0 0 563.24 127.71
  L 574.14 97.24
  A 1.05 1.05 0.0 0 1 575.13 96.54
  L 587.20 96.54
  A 0.45 0.45 0.0 0 1 587.62 97.15
  L 569.11 143.59
  A 0.59 0.58 5.7 0 1 568.68 143.94
  Q 568.44 143.98 563.03 144.00
  Q 557.62 144.01 557.38 143.97
  A 0.59 0.58 -6.0 0 1 556.94 143.62
  L 538.17 97.29
  A 0.45 0.45 0.0 0 1 538.59 96.68
  L 550.66 96.61
  A 1.05 1.05 0.0 0 1 551.65 97.30
  L 562.72 127.71
  A 0.26 0.23 88.2 0 0 562.87 127.87
  Q 562.92 127.89 562.98 127.89
  Z"
/>
<circle fill="#000000" cx="178.57" cy="115.53" r="4.86"/>
<path fill="#000000" d="
  M 103.96 132.93
  Q 125.37 140.03 143.32 151.38
  A 0.38 0.38 0.0 0 1 143.15 152.09
  Q 138.14 152.50 132.37 154.17
  Q 125.27 156.22 122.46 156.10
  C 108.99 155.53 100.36 145.35 90.45 135.80
  Q 83.77 129.35 76.66 124.57
  A 0.45 0.45 0.0 0 1 76.71 123.80
  C 88.58 117.71 102.55 113.43 116.01 114.53
  C 127.05 115.44 134.87 121.12 140.73 130.19
  Q 144.47 135.97 146.01 138.23
  C 148.71 142.22 153.59 145.73 156.21 148.51
  Q 162.32 155.02 165.00 163.16
  A 0.47 0.46 -41.5 0 0 165.86 163.21
  C 167.54 159.73 169.41 157.05 172.51 154.29
  Q 176.26 150.96 180.54 147.16
  A 8.32 8.06 87.4 0 0 181.83 145.70
  C 183.69 143.02 185.89 139.09 188.37 136.69
  Q 198.25 127.16 212.67 129.71
  Q 224.30 131.77 234.02 137.58
  A 0.41 0.41 0.0 0 1 234.03 138.27
  Q 226.38 143.26 218.60 150.34
  C 213.98 154.54 207.63 159.68 200.67 160.54
  C 195.64 161.15 188.83 158.16 182.96 156.70
  A 0.32 0.32 0.0 0 1 182.88 156.11
  Q 197.37 148.23 212.16 143.96
  A 0.28 0.28 0.0 0 0 212.08 143.41
  Q 196.87 143.76 183.93 150.63
  Q 176.51 154.56 172.43 162.41
  C 167.19 172.51 172.37 187.75 184.97 188.10
  C 197.61 188.45 205.69 172.97 209.55 162.79
  A 3.52 3.50 -10.1 0 1 210.58 161.32
  L 219.42 153.89
  A 0.19 0.18 74.3 0 1 219.72 154.06
  C 215.37 185.56 189.90 207.24 158.40 207.45
  Q 142.20 207.56 127.69 199.58
  C 107.11 188.25 95.30 168.53 95.28 144.75
  A 0.31 0.31 0.0 0 1 95.80 144.53
  L 102.78 151.52
  A 2.93 2.90 -75.0 0 1 103.54 152.85
  Q 105.20 159.43 106.26 162.49
  C 110.99 176.18 120.64 188.22 135.07 192.11
  Q 141.70 193.90 147.60 191.61
  C 157.45 187.78 160.04 177.82 158.42 168.00
  C 154.35 143.18 125.23 134.19 104.05 132.48
  A 0.23 0.23 0.0 0 0 103.96 132.93
  Z"
/>
<circle fill="#000000" cx="153.16" cy="121.90" r="4.13"/>
<circle fill="#000000" cx="166.44" cy="138.15" r="6.99"/>
<path fill="#000000" d="
  M 466.98 169.55
  Q 465.69 168.92 465.61 168.88
  A 0.85 0.85 0.0 0 0 464.44 169.30
  Q 463.65 171.09 461.90 170.58
  A 1.65 1.27 -68.5 0 1 461.28 168.43
  C 463.02 164.65 465.21 164.99 468.44 166.56
  Q 469.73 167.19 469.81 167.23
  A 0.85 0.85 0.0 0 0 470.98 166.82
  Q 471.77 165.03 473.52 165.54
  A 1.65 1.27 -68.5 0 1 474.14 167.68
  C 472.39 171.47 470.20 171.13 466.98 169.55
  Z"
/>
<path fill="#000000" d="
  M 643.96 165.55
  L 647.93 165.55
  A 0.42 0.42 0.0 0 1 648.27 166.21
  L 645.34 170.21
  A 0.85 0.83 17.8 0 1 644.66 170.55
  L 641.95 170.55
  A 0.51 0.51 0.0 0 1 641.48 169.86
  L 642.92 166.25
  A 1.12 1.11 10.8 0 1 643.96 165.55
  Z"
/>
<path fill="#000000" d="
  M 480.8390 185.0495
  A 13.14 12.88 -0.7 0 1 467.8574 198.0890
  A 13.14 12.88 -0.7 0 1 454.5610 185.3705
  A 13.14 12.88 -0.7 0 1 467.5426 172.3310
  A 13.14 12.88 -0.7 0 1 480.8390 185.0495
  Z
  M 475.47 185.21
  A 7.76 7.76 0.0 0 0 467.71 177.45
  A 7.76 7.76 0.0 0 0 459.95 185.21
  A 7.76 7.76 0.0 0 0 467.71 192.97
  A 7.76 7.76 0.0 0 0 475.47 185.21
  Z"
/>
<path fill="#000000" d="
  M 630.2103 185.1183
  A 13.13 12.87 -179.6 0 1 643.4298 172.3403
  A 13.13 12.87 -179.6 0 1 656.4697 185.3017
  A 13.13 12.87 -179.6 0 1 643.2502 198.0797
  A 13.13 12.87 -179.6 0 1 630.2103 185.1183
  Z
  M 651.08 185.22
  A 7.76 7.76 0.0 0 0 643.32 177.46
  A 7.76 7.76 0.0 0 0 635.56 185.22
  A 7.76 7.76 0.0 0 0 643.32 192.98
  A 7.76 7.76 0.0 0 0 651.08 185.22
  Z"
/>
<path fill="#000000" d="
  M 340.62 180.39
  L 336.80 180.39
  A 0.90 0.89 -12.4 0 1 335.99 179.87
  Q 334.16 175.94 329.78 177.92
  A 1.75 1.75 0.0 0 0 329.06 180.53
  Q 329.74 181.49 331.36 181.91
  C 336.02 183.11 341.47 183.96 341.85 189.81
  C 342.52 200.21 324.14 201.17 323.07 190.20
  A 0.60 0.60 0.0 0 1 323.68 189.55
  L 327.52 189.56
  A 0.95 0.94 78.9 0 1 328.39 190.15
  Q 330.10 194.39 334.97 192.40
  A 2.36 2.23 -27.1 0 0 336.14 189.08
  Q 335.60 188.23 334.53 187.94
  Q 331.20 187.06 328.16 186.08
  C 323.72 184.65 322.23 180.18 324.29 176.24
  C 326.27 172.52 331.81 171.87 335.64 172.92
  Q 340.69 174.29 341.13 179.84
  A 0.51 0.51 0.0 0 1 340.62 180.39
  Z"
/>
<path fill="#000000" d="
  M 372.9690 185.0495
  A 13.14 12.87 -0.7 0 1 359.9872 198.0790
  A 13.14 12.87 -0.7 0 1 346.6910 185.3705
  A 13.14 12.87 -0.7 0 1 359.6728 172.3410
  A 13.14 12.87 -0.7 0 1 372.9690 185.0495
  Z
  M 367.59 185.21
  A 7.76 7.76 0.0 0 0 359.83 177.45
  A 7.76 7.76 0.0 0 0 352.07 185.21
  A 7.76 7.76 0.0 0 0 359.83 192.97
  A 7.76 7.76 0.0 0 0 367.59 185.21
  Z"
/>
<path fill="#000000" d="
  M 439.78 198.58
  Q 439.90 198.74 440.62 198.98
  Q 440.92 199.08 441.37 199.60
  C 444.85 203.60 439.15 206.15 435.92 205.51
  A 1.30 1.30 0.0 0 1 435.81 202.98
  Q 436.02 202.92 437.47 202.98
  A 1.27 1.10 -21.5 0 0 438.52 200.98
  Q 438.05 200.62 437.15 200.62
  Q 436.09 200.63 435.97 200.24
  Q 435.80 199.74 436.26 198.87
  A 0.70 0.70 0.0 0 0 435.82 197.87
  Q 426.98 195.57 425.68 187.08
  C 423.34 171.88 445.23 166.08 449.93 181.42
  A 0.59 0.58 -8.7 0 1 449.37 182.18
  L 445.65 182.18
  A 1.22 1.20 -15.2 0 1 444.61 181.60
  Q 441.35 176.13 435.90 177.92
  C 428.42 180.38 429.60 192.76 438.15 192.92
  Q 442.75 193.01 444.82 188.14
  A 0.40 0.40 0.0 0 1 445.19 187.89
  L 449.96 187.89
  A 0.20 0.20 0.0 0 1 450.15 188.14
  Q 448.11 196.42 440.05 197.90
  A 0.43 0.43 0.0 0 0 439.78 198.58
  Z"
/>
<path fill="#000000" d="
  M 524.87 180.38
  L 521.05 180.38
  A 0.90 0.89 -12.4 0 1 520.24 179.87
  Q 518.41 175.94 514.03 177.92
  A 1.75 1.75 0.0 0 0 513.32 180.53
  Q 514.00 181.49 515.61 181.91
  C 520.27 183.11 525.73 183.95 526.10 189.80
  C 526.79 200.20 508.41 201.17 507.34 190.21
  A 0.60 0.59 -2.6 0 1 507.94 189.56
  L 511.78 189.56
  A 0.95 0.94 78.8 0 1 512.65 190.15
  Q 514.36 194.39 519.23 192.39
  A 2.36 2.23 -27.1 0 0 520.40 189.07
  Q 519.86 188.23 518.79 187.93
  Q 515.45 187.05 512.41 186.08
  C 507.98 184.65 506.48 180.18 508.54 176.25
  C 510.51 172.52 516.06 171.87 519.89 172.92
  Q 524.93 174.29 525.38 179.83
  A 0.51 0.51 0.0 0 1 524.87 180.38
  Z"
/>
<path fill="#000000" d="
  M 605.0793 185.0725
  A 13.13 12.87 -0.6 0 1 592.0848 198.0793
  A 13.13 12.87 -0.6 0 1 578.8207 185.3475
  A 13.13 12.87 -0.6 0 1 591.8152 172.3407
  A 13.13 12.87 -0.6 0 1 605.0793 185.0725
  Z
  M 599.72 185.21
  A 7.76 7.76 0.0 0 0 591.96 177.45
  A 7.76 7.76 0.0 0 0 584.20 185.21
  A 7.76 7.76 0.0 0 0 591.96 192.97
  A 7.76 7.76 0.0 0 0 599.72 185.21
  Z"
/>
<path fill="#000000" d="
  M 680.49 189.43
  A 0.46 0.45 17.0 0 0 680.11 188.72
  L 674.15 188.72
  A 0.78 0.78 0.0 0 1 673.37 187.94
  L 673.37 185.52
  A 0.86 0.85 -0.0 0 1 674.23 184.67
  L 685.76 184.67
  A 0.67 0.67 0.0 0 1 686.43 185.40
  C 685.54 194.35 678.72 199.99 670.02 197.45
  C 659.25 194.31 658.06 178.89 667.87 173.85
  C 674.78 170.30 683.84 173.43 685.92 181.30
  A 0.35 0.35 0.0 0 1 685.58 181.74
  L 681.32 181.74
  A 1.10 1.09 -15.8 0 1 680.39 181.23
  C 675.84 174.07 665.52 177.76 666.66 186.35
  C 667.64 193.84 676.61 195.15 680.49 189.43
  Z"
/>
<path fill="#000000" d="
  M 709.58 185.35
  C 709.73 193.37 719.56 195.94 723.30 188.60
  A 1.32 1.30 13.3 0 1 724.47 187.89
  L 728.26 187.89
  A 0.48 0.48 0.0 0 1 728.72 188.50
  C 724.67 203.09 704.48 200.01 704.20 185.46
  C 703.91 170.90 723.97 167.05 728.59 181.47
  A 0.48 0.48 0.0 0 1 728.15 182.09
  L 724.36 182.24
  A 1.32 1.30 -15.5 0 1 723.16 181.57
  C 719.14 174.39 709.42 177.33 709.58 185.35
  Z"
/>
<path fill="#000000" d="
  M 778.12 180.38
  L 774.30 180.38
  A 0.90 0.89 -12.4 0 1 773.49 179.87
  Q 771.65 175.94 767.27 177.92
  A 1.76 1.75 -29.9 0 0 766.56 180.53
  Q 767.24 181.49 768.86 181.91
  C 773.52 183.11 778.98 183.95 779.36 189.80
  C 780.05 200.21 761.66 201.19 760.58 190.22
  A 0.60 0.60 0.0 0 1 761.18 189.57
  L 765.03 189.57
  A 0.95 0.94 78.8 0 1 765.90 190.16
  Q 767.61 194.40 772.48 192.40
  A 2.36 2.23 -27.1 0 0 773.65 189.08
  Q 773.11 188.23 772.04 187.94
  Q 768.70 187.06 765.66 186.09
  C 761.22 184.66 759.72 180.19 761.78 176.25
  C 763.75 172.52 769.30 171.87 773.13 172.91
  Q 778.18 174.28 778.63 179.83
  A 0.51 0.51 0.0 0 1 778.12 180.38
  Z"
/>
<path fill="#000000" d="
  M 384.50 173.53
  L 384.50 191.93
  A 0.66 0.66 0.0 0 0 385.16 192.59
  L 393.28 192.59
  A 0.66 0.66 0.0 0 1 393.94 193.25
  L 393.94 196.84
  A 0.66 0.66 0.0 0 1 393.28 197.50
  L 379.86 197.50
  A 0.66 0.66 0.0 0 1 379.20 196.84
  L 379.20 173.53
  A 0.66 0.66 0.0 0 1 379.86 172.87
  L 383.84 172.87
  A 0.66 0.66 0.0 0 1 384.50 173.53
  Z"
/>
<path fill="#000000" d="
  M 409.47 193.02
  C 413.56 193.02 414.39 189.72 414.35 186.15
  Q 414.30 182.46 414.34 173.50
  A 0.63 0.63 0.0 0 1 414.97 172.87
  L 418.98 172.87
  A 0.63 0.63 0.0 0 1 419.61 173.50
  Q 419.64 186.41 419.66 187.23
  C 419.79 193.62 415.75 198.03 409.46 198.03
  C 403.18 198.02 399.14 193.61 399.28 187.22
  Q 399.30 186.40 399.34 173.49
  A 0.63 0.63 0.0 0 1 399.97 172.86
  L 403.98 172.86
  A 0.63 0.63 0.0 0 1 404.61 173.50
  Q 404.64 182.46 404.59 186.15
  C 404.54 189.71 405.38 193.01 409.47 193.02
  Z"
/>
<path fill="#000000" d="
  M 500.88 185.13
  Q 500.89 185.93 500.89 186.91
  A 0.65 0.65 0.0 0 1 500.24 187.57
  L 493.15 187.57
  A 0.74 0.74 0.0 0 0 492.41 188.31
  L 492.41 191.84
  A 0.71 0.71 0.0 0 0 493.12 192.55
  L 501.41 192.55
  A 0.67 0.67 0.0 0 1 502.08 193.22
  L 502.08 196.82
  A 0.66 0.66 0.0 0 1 501.42 197.48
  L 487.61 197.48
  A 0.43 0.42 -0.6 0 1 487.18 197.07
  Q 487.15 196.16 487.08 185.22
  Q 487.01 174.27 487.03 173.37
  A 0.43 0.42 -0.1 0 1 487.46 172.95
  L 501.27 172.78
  A 0.66 0.66 0.0 0 1 501.93 173.43
  L 501.98 177.03
  A 0.67 0.67 0.0 0 1 501.32 177.71
  L 493.03 177.81
  A 0.71 0.71 0.0 0 0 492.33 178.53
  L 492.37 182.06
  A 0.74 0.74 0.0 0 0 493.12 182.79
  L 500.21 182.70
  A 0.65 0.65 0.0 0 1 500.87 183.35
  Q 500.88 184.33 500.88 185.13
  Z"
/>
<rect fill="#000000" x="567.44" y="172.84" width="5.26" height="24.64" rx="0.68"/>
<path fill="#000000" d="
  M 611.33 173.57
  A 0.69 0.69 0.0 0 1 612.02 172.88
  L 615.97 172.87
  A 0.66 0.66 0.0 0 1 616.63 173.53
  L 616.63 191.83
  A 0.77 0.77 0.0 0 0 617.41 192.60
  L 625.33 192.57
  A 0.74 0.74 0.0 0 1 626.07 193.31
  L 626.08 196.80
  A 0.70 0.69 -0.4 0 1 625.38 197.50
  L 612.08 197.49
  A 0.74 0.74 0.0 0 1 611.34 196.75
  L 611.33 173.57
  Z"
/>
<rect fill="#000000" x="692.58" y="172.84" width="5.28" height="24.64" rx="0.69"/>
<path fill="#000000" d="
  M 744.35 172.88
  Q 745.46 172.87 746.38 173.00
  A 0.97 0.97 0.0 0 1 747.15 173.60
  L 756.42 196.61
  A 0.64 0.63 -10.9 0 1 755.83 197.48
  L 751.88 197.48
  A 1.13 1.12 -10.7 0 1 750.83 196.77
  L 749.51 193.51
  A 1.06 1.06 0.0 0 0 748.55 192.85
  Q 747.87 192.83 744.42 192.84
  Q 740.96 192.85 740.28 192.87
  A 1.06 1.06 0.0 0 0 739.32 193.54
  L 738.02 196.81
  A 1.13 1.12 10.3 0 1 736.98 197.53
  L 733.03 197.55
  A 0.64 0.63 10.6 0 1 732.43 196.68
  L 741.56 173.62
  A 0.97 0.97 0.0 0 1 742.32 173.01
  Q 743.24 172.88 744.35 172.88
  Z
  M 741.33 187.78
  A 0.32 0.32 0.0 0 0 741.63 188.21
  L 747.16 188.20
  A 0.32 0.32 0.0 0 0 747.46 187.77
  L 744.68 180.20
  A 0.32 0.32 0.0 0 0 744.08 180.20
  L 741.33 187.78
  Z"
/>
<path fill="#000000" d="
  M 543.53 172.95
  Q 545.93 172.86 552.56 172.95
  C 558.82 173.04 563.28 178.54 558.27 183.95
  A 0.74 0.73 42.0 0 0 558.33 185.00
  C 563.72 189.66 560.20 197.31 553.48 197.49
  Q 548.85 197.61 543.50 197.54
  A 0.72 0.71 -89.6 0 1 542.80 196.82
  L 542.80 173.71
  A 0.76 0.76 0.0 0 1 543.53 172.95
  Z
  M 547.99 177.97
  L 547.97 182.13
  A 0.55 0.55 0.0 0 0 548.52 182.68
  L 552.21 182.70
  A 2.94 2.44 0.3 0 0 555.16 180.28
  L 555.16 179.90
  A 2.94 2.44 0.3 0 0 552.23 177.44
  L 548.54 177.42
  A 0.55 0.55 0.0 0 0 547.99 177.97
  Z
  M 547.99 187.73
  L 547.97 191.99
  A 0.65 0.65 0.0 0 0 548.62 192.64
  L 552.50 192.66
  A 3.11 2.67 0.3 0 0 555.62 190.01
  L 555.62 189.79
  A 3.11 2.67 0.3 0 0 552.52 187.10
  L 548.64 187.08
  A 0.65 0.65 0.0 0 0 547.99 187.73
  Z"
/>
</svg>
