<?xml version="1.0" encoding="UTF-8" standalone="no"?>
<!DOCTYPE svg PUBLIC "-//W3C//DTD SVG 1.1//EN" "http://www.w3.org/Graphics/SVG/1.1/DTD/svg11.dtd">
<svg xmlns="http://www.w3.org/2000/svg" version="1.1" viewBox="0.00 0.00 978.00 230.00">
<circle fill="#82c34a" cx="202.77" cy="34.13" r="7.20"/>
<circle fill="#82c34a" cx="175.55" cy="38.53" r="4.93"/>
<circle fill="#82c34a" cx="192.11" cy="51.38" r="4.89"/>
<path fill="#01afed" d="
  M 113.45 111.61
  L 104.59 111.61
  A 0.08 0.07 17.1 0 1 104.52 111.49
  Q 114.54 96.35 128.74 88.75
  Q 140.83 82.27 154.69 82.10
  A 0.83 0.82 6.9 0 0 155.48 81.49
  L 157.27 75.00
  A 1.40 1.39 -60.0 0 0 156.91 73.65
  C 148.58 65.39 157.10 50.77 168.50 53.77
  Q 183.25 57.66 192.06 60.19
  Q 195.51 61.19 198.28 62.47
  C 207.53 66.74 207.74 79.70 198.97 84.23
  Q 196.56 85.48 196.09 85.76
  A 1.55 1.52 -8.4 0 0 195.40 86.67
  L 193.82 92.40
  A 0.89 0.88 -65.7 0 0 194.18 93.36
  Q 212.01 105.22 217.95 125.95
  A 0.68 0.67 -5.2 0 1 217.23 126.81
  L 210.98 126.16
  A 1.76 1.74 -6.3 0 1 209.51 124.99
  Q 203.36 107.43 186.11 96.94
  A 1.32 1.32 0.0 0 1 185.53 95.47
  L 190.18 78.55
  A 0.72 0.72 0.0 0 1 191.02 78.04
  C 198.53 79.69 200.06 70.26 193.76 68.44
  Q 173.66 62.66 168.20 61.40
  Q 163.69 60.36 161.61 63.89
  A 2.57 2.52 64.7 0 0 161.28 64.84
  Q 160.63 69.58 165.09 70.93
  A 0.58 0.58 0.0 0 1 165.49 71.64
  L 160.78 88.76
  A 0.85 0.84 -80.9 0 1 159.93 89.38
  Q 130.39 88.20 114.00 111.33
  A 0.70 0.68 -70.9 0 1 113.45 111.61
  Z"
/>
<rect fill="#82c34a" x="518.15" y="78.41" width="12.70" height="11.88" rx="0.44"/>
<path fill="#01afed" d="
  M 795.97 98.78
  Q 802.25 95.19 807.75 95.29
  Q 824.60 95.60 831.06 109.69
  C 834.38 116.94 833.98 126.43 829.75 133.50
  C 822.53 145.60 805.14 149.74 793.90 140.31
  A 0.35 0.35 0.0 0 0 793.35 140.45
  L 792.06 143.68
  A 0.69 0.69 0.0 0 1 791.42 144.12
  L 783.14 144.12
  A 0.59 0.59 0.0 0 1 782.55 143.53
  L 782.55 80.15
  A 0.60 0.60 0.0 0 1 783.15 79.55
  L 794.67 79.55
  A 0.70 0.69 -90.0 0 1 795.36 80.25
  L 795.36 98.42
  A 0.41 0.41 0.0 0 0 795.97 98.78
  Z
  M 820.26 120.30
  A 12.99 12.99 0.0 0 0 807.27 107.31
  A 12.99 12.99 0.0 0 0 794.28 120.30
  A 12.99 12.99 0.0 0 0 807.27 133.29
  A 12.99 12.99 0.0 0 0 820.26 120.30
  Z"
/>
<path fill="#82c34a" d="
  M 285.77 144.01
  L 273.62 144.01
  A 0.46 0.46 0.0 0 1 273.16 143.55
  L 273.16 82.92
  A 0.34 0.34 0.0 0 1 273.50 82.58
  Q 295.14 82.48 298.79 82.65
  C 309.36 83.14 317.67 91.85 318.36 102.15
  C 319.06 112.67 312.86 121.37 302.61 124.14
  C 298.36 125.29 290.67 124.87 287.01 124.80
  A 0.61 0.61 0.0 0 0 286.39 125.41
  L 286.39 143.39
  A 0.62 0.62 0.0 0 1 285.77 144.01
  Z
  M 286.44 95.33
  L 286.38 112.09
  A 0.46 0.46 0.0 0 0 286.84 112.55
  L 296.23 112.58
  A 8.71 8.47 0.2 0 0 304.97 104.14
  L 304.97 103.40
  A 8.71 8.47 0.2 0 0 296.29 94.90
  L 286.90 94.87
  A 0.46 0.46 0.0 0 0 286.44 95.33
  Z"
/>
<path fill="#01afed" d="
  M 677.42 82.55
  L 689.92 82.55
  A 0.39 0.39 0.0 0 1 690.31 82.94
  L 690.31 131.30
  A 0.39 0.39 0.0 0 0 690.70 131.69
  L 713.48 131.69
  A 0.39 0.39 0.0 0 1 713.87 132.08
  L 713.87 143.60
  A 0.39 0.39 0.0 0 1 713.48 143.99
  L 677.42 143.99
  A 0.39 0.39 0.0 0 1 677.03 143.60
  L 677.03 82.94
  A 0.39 0.39 0.0 0 1 677.42 82.55
  Z"
/>
<path fill="#82c34a" d="
  M 496.04 96.18
  A 0.41 0.40 90.0 0 0 496.44 96.59
  L 508.54 96.59
  A 0.59 0.59 0.0 0 1 509.13 97.18
  L 509.13 106.32
  A 0.61 0.60 -90.0 0 1 508.53 106.93
  L 496.84 106.93
  A 0.62 0.61 -88.5 0 0 496.23 107.52
  Q 496.19 108.55 496.22 121.20
  Q 496.23 126.83 496.48 127.74
  C 498.21 133.87 503.95 132.19 508.83 132.60
  A 0.60 0.60 0.0 0 1 509.38 133.20
  L 509.38 143.64
  A 0.45 0.45 0.0 0 1 508.90 144.09
  Q 508.20 144.06 500.51 143.94
  Q 483.59 143.69 483.42 126.47
  Q 483.33 118.15 483.37 107.52
  A 0.60 0.60 0.0 0 0 482.77 106.92
  L 475.55 106.92
  A 0.67 0.67 0.0 0 1 474.90 106.40
  Q 474.48 104.60 475.39 103.63
  Q 482.69 95.80 492.48 85.43
  C 493.53 84.32 494.13 84.08 495.47 84.32
  A 0.70 0.69 -85.1 0 1 496.04 85.01
  L 496.04 96.18
  Z"
/>
<circle fill="#82c34a" cx="169.68" cy="94.50" r="4.14"/>
<path fill="#82c34a" d="
  M 359.2402 120.2401
  A 25.76 25.19 -179.8 0 1 385.0879 95.1402
  A 25.76 25.19 -179.8 0 1 410.7598 120.4199
  A 25.76 25.19 -179.8 0 1 384.9121 145.5198
  A 25.76 25.19 -179.8 0 1 359.2402 120.2401
  Z
  M 385.0228 107.2200
  A 13.09 12.73 -89.9 0 0 372.2700 120.2878
  A 13.09 12.73 -89.9 0 0 384.9772 133.4000
  A 13.09 12.73 -89.9 0 0 397.7300 120.3322
  A 13.09 12.73 -89.9 0 0 385.0228 107.2200
  Z"
/>
<path fill="#82c34a" d="
  M 468.11 120.35
  Q 468.10 129.45 468.08 143.59
  A 0.48 0.48 0.0 0 1 467.60 144.07
  L 458.76 144.07
  A 0.38 0.38 0.0 0 1 458.40 143.82
  L 457.23 140.65
  A 0.72 0.71 -30.0 0 0 456.10 140.35
  Q 451.63 144.10 445.89 144.94
  C 429.89 147.26 416.73 136.51 416.74 120.31
  C 416.76 104.11 429.93 93.38 445.93 95.73
  Q 451.67 96.57 456.13 100.33
  A 0.72 0.71 30.1 0 0 457.26 100.03
  L 458.44 96.87
  A 0.38 0.38 0.0 0 1 458.80 96.62
  L 467.64 96.63
  A 0.48 0.48 0.0 0 1 468.12 97.11
  Q 468.11 111.25 468.11 120.35
  Z
  M 455.64 120.29
  A 13.00 13.00 0.0 0 0 442.64 107.29
  A 13.00 13.00 0.0 0 0 429.64 120.29
  A 13.00 13.00 0.0 0 0 442.64 133.29
  A 13.00 13.00 0.0 0 0 455.64 120.29
  Z"
/>
<path fill="#82c34a" d="
  M 591.36 120.33
  C 591.36 104.13 604.53 93.40 620.52 95.74
  Q 626.25 96.58 630.72 100.34
  A 0.72 0.71 30.1 0 0 631.85 100.04
  L 633.02 96.87
  A 0.38 0.38 0.0 0 1 633.38 96.62
  L 642.22 96.63
  A 0.48 0.48 0.0 0 1 642.70 97.11
  Q 642.70 111.24 642.70 120.34
  Q 642.70 129.44 642.69 143.57
  A 0.48 0.48 0.0 0 1 642.21 144.05
  L 633.37 144.05
  A 0.38 0.38 0.0 0 1 633.01 143.80
  L 631.84 140.64
  A 0.72 0.71 -30.1 0 0 630.71 140.34
  Q 626.24 144.09 620.51 144.93
  C 604.52 147.26 591.36 136.52 591.36 120.33
  Z
  M 630.26 120.30
  A 13.00 13.00 0.0 0 0 617.26 107.30
  A 13.00 13.00 0.0 0 0 604.26 120.30
  A 13.00 13.00 0.0 0 0 617.26 133.30
  A 13.00 13.00 0.0 0 0 630.26 120.30
  Z"
/>
<path fill="#01afed" d="
  M 718.88 120.32
  C 718.88 104.13 732.05 93.39 748.05 95.74
  Q 753.79 96.58 758.25 100.34
  A 0.72 0.71 30.1 0 0 759.38 100.04
  L 760.55 96.87
  A 0.38 0.38 0.0 0 1 760.91 96.62
  L 769.75 96.63
  A 0.48 0.48 0.0 0 1 770.23 97.11
  Q 770.23 111.24 770.23 120.35
  Q 770.23 129.45 770.21 143.58
  A 0.48 0.48 0.0 0 1 769.73 144.06
  L 760.89 144.07
  A 0.38 0.38 0.0 0 1 760.53 143.82
  L 759.36 140.65
  A 0.72 0.71 -30.1 0 0 758.23 140.35
  Q 753.76 144.10 748.03 144.94
  C 732.03 147.27 718.87 136.52 718.88 120.32
  Z
  M 757.76 120.30
  A 13.00 13.00 0.0 0 0 744.76 107.30
  A 13.00 13.00 0.0 0 0 731.76 120.30
  A 13.00 13.00 0.0 0 0 744.76 133.30
  A 13.00 13.00 0.0 0 0 757.76 120.30
  Z"
/>
<path fill="#82c34a" d="
  M 337.64 101.92
  C 340.34 99.51 341.86 98.02 345.90 96.89
  Q 348.30 96.22 354.63 96.35
  A 0.63 0.63 0.0 0 1 355.25 96.98
  L 355.22 108.02
  A 0.43 0.43 0.0 0 1 354.68 108.44
  Q 354.54 108.41 349.87 108.44
  C 344.03 108.48 340.16 110.56 339.70 117.11
  Q 339.52 119.69 339.59 143.38
  A 0.64 0.63 0.0 0 1 338.95 144.01
  L 327.39 144.01
  A 0.64 0.64 0.0 0 1 326.75 143.37
  L 326.75 97.21
  A 0.63 0.62 -0.0 0 1 327.38 96.59
  L 334.42 96.59
  A 0.79 0.78 -10.1 0 1 335.16 97.10
  L 336.86 101.73
  A 0.49 0.49 0.0 0 0 337.64 101.92
  Z"
/>
<rect fill="#82c34a" x="518.16" y="96.59" width="12.78" height="47.42" rx="0.42"/>
<path fill="#82c34a" d="
  M 562.85 128.10
  Q 562.98 128.10 563.05 127.91
  Q 569.08 110.96 574.10 97.06
  A 0.79 0.79 0.0 0 1 574.84 96.54
  L 587.31 96.54
  A 0.29 0.29 0.0 0 1 587.58 96.94
  L 568.97 143.60
  A 0.60 0.60 0.0 0 1 568.42 143.97
  Q 563.83 143.98 562.90 143.99
  Q 561.96 143.99 557.37 144.00
  A 0.60 0.60 0.0 0 1 556.82 143.63
  L 537.96 97.07
  A 0.29 0.29 0.0 0 1 538.23 96.67
  L 550.70 96.61
  A 0.79 0.79 0.0 0 1 551.44 97.12
  Q 556.54 110.99 562.66 127.91
  Q 562.72 128.10 562.85 128.10
  Z"
/>
<circle fill="#82c34a" cx="178.58" cy="115.53" r="4.86"/>
<path fill="#82c34a" d="
  M 212.25 143.96
  A 0.29 0.28 -53.5 0 0 212.17 143.40
  C 199.54 143.72 184.24 147.54 175.82 157.29
  C 169.47 164.64 168.12 175.64 174.66 183.07
  C 180.93 190.21 190.63 189.31 196.96 183.19
  C 203.00 177.34 206.38 170.91 209.66 162.56
  A 2.83 2.80 -9.8 0 1 210.48 161.41
  L 219.40 153.88
  A 0.19 0.19 0.0 0 1 219.71 154.05
  C 215.42 185.40 190.26 206.95 158.84 207.45
  Q 142.92 207.70 128.48 200.00
  C 107.45 188.78 95.33 168.89 95.27 144.74
  A 0.31 0.30 22.7 0 1 95.79 144.53
  L 102.72 151.46
  A 3.72 3.71 16.1 0 1 103.69 153.21
  C 106.60 165.76 111.40 176.35 120.82 184.67
  C 126.69 189.84 136.30 194.00 144.06 192.58
  C 162.55 189.21 161.54 166.22 152.95 154.51
  C 142.54 140.30 123.43 134.47 106.06 132.72
  Q 104.11 132.53 103.72 132.62
  A 0.16 0.16 0.0 0 0 103.71 132.93
  Q 124.56 139.51 143.45 151.48
  A 0.33 0.33 0.0 0 1 143.31 152.09
  Q 136.18 152.82 127.51 155.46
  C 118.73 158.13 108.81 152.95 101.89 146.61
  C 94.25 139.60 85.94 130.79 76.61 124.53
  A 0.42 0.41 -41.3 0 1 76.66 123.82
  Q 90.17 116.92 105.09 114.64
  Q 107.83 114.22 113.71 114.37
  C 125.11 114.68 135.06 120.39 140.64 130.17
  Q 145.12 138.03 151.07 143.62
  Q 156.67 148.88 158.11 150.65
  Q 162.72 156.36 165.04 163.17
  A 0.44 0.43 48.9 0 0 165.84 163.23
  C 167.46 159.97 169.07 157.40 171.81 154.93
  Q 175.36 151.72 180.76 146.97
  A 4.51 4.15 -4.8 0 0 181.43 146.24
  C 183.32 143.64 185.18 140.21 187.08 138.09
  Q 197.22 126.81 213.27 129.81
  Q 224.24 131.87 234.05 137.58
  A 0.37 0.37 0.0 0 1 234.07 138.21
  Q 225.84 143.67 217.80 151.05
  Q 214.99 153.62 208.78 157.76
  Q 205.86 159.71 200.64 160.53
  Q 197.53 161.02 192.20 159.29
  Q 188.42 158.07 182.94 156.73
  A 0.33 0.33 0.0 0 1 182.86 156.12
  Q 197.49 148.14 212.25 143.96
  Z"
/>
<circle fill="#82c34a" cx="153.16" cy="121.91" r="4.13"/>
<circle fill="#82c34a" cx="166.45" cy="138.15" r="7.00"/>
<path fill="#000000" d="
  M 466.98 169.54
  Q 465.67 168.91 465.62 168.88
  A 0.81 0.81 0.0 0 0 464.52 169.22
  Q 463.56 171.04 462.12 170.62
  A 2.08 1.67 -61.9 0 1 461.55 167.60
  C 463.72 164.58 465.60 165.16 468.46 166.56
  Q 469.76 167.20 469.81 167.23
  A 0.81 0.81 0.0 0 0 470.92 166.89
  Q 471.88 165.07 473.32 165.49
  A 2.08 1.67 -61.9 0 1 473.88 168.51
  C 471.72 171.53 469.83 170.95 466.98 169.54
  Z"
/>
<path fill="#000000" d="
  M 643.92 165.55
  L 648.00 165.55
  A 0.37 0.37 0.0 0 1 648.30 166.14
  L 645.45 170.06
  A 1.04 1.03 13.6 0 1 644.74 170.49
  Q 643.20 170.68 641.86 170.50
  A 0.47 0.47 0.0 0 1 641.49 169.86
  L 642.94 166.22
  A 1.07 1.05 -78.8 0 1 643.92 165.55
  Z"
/>
<path fill="#000000" d="
  M 480.8390 185.0495
  A 13.14 12.88 -0.7 0 1 467.8574 198.0890
  A 13.14 12.88 -0.7 0 1 454.5610 185.3705
  A 13.14 12.88 -0.7 0 1 467.5426 172.3310
  A 13.14 12.88 -0.7 0 1 480.8390 185.0495
  Z
  M 475.47 185.21
  A 7.76 7.76 0.0 0 0 467.71 177.45
  A 7.76 7.76 0.0 0 0 459.95 185.21
  A 7.76 7.76 0.0 0 0 467.71 192.97
  A 7.76 7.76 0.0 0 0 475.47 185.21
  Z"
/>
<path fill="#000000" d="
  M 630.2103 185.1183
  A 13.13 12.87 -179.6 0 1 643.4298 172.3403
  A 13.13 12.87 -179.6 0 1 656.4697 185.3017
  A 13.13 12.87 -179.6 0 1 643.2502 198.0797
  A 13.13 12.87 -179.6 0 1 630.2103 185.1183
  Z
  M 651.08 185.22
  A 7.76 7.76 0.0 0 0 643.32 177.46
  A 7.76 7.76 0.0 0 0 635.56 185.22
  A 7.76 7.76 0.0 0 0 643.32 192.98
  A 7.76 7.76 0.0 0 0 651.08 185.22
  Z"
/>
<path fill="#000000" d="
  M 340.12 180.40
  L 336.89 180.40
  A 1.00 0.99 -12.6 0 1 335.99 179.84
  Q 334.08 175.96 329.78 177.90
  A 1.76 1.76 0.0 0 0 329.06 180.52
  Q 329.74 181.50 331.36 181.90
  C 336.00 183.07 341.50 183.99 341.85 189.81
  C 342.48 200.26 324.09 201.13 323.09 190.19
  A 0.58 0.57 87.3 0 1 323.66 189.56
  L 327.58 189.56
  A 0.80 0.79 78.1 0 1 328.31 190.04
  Q 330.18 194.41 334.94 192.43
  A 2.44 2.33 -21.7 0 0 336.32 189.42
  C 335.73 187.85 332.66 187.39 330.05 186.70
  C 325.72 185.56 322.66 183.25 323.56 178.37
  C 324.57 172.80 330.25 172.16 334.78 172.69
  Q 339.45 173.24 341.20 178.95
  A 1.13 1.13 0.0 0 1 340.12 180.40
  Z"
/>
<path fill="#000000" d="
  M 372.9593 185.0724
  A 13.14 12.87 -0.6 0 1 359.9548 198.0793
  A 13.14 12.87 -0.6 0 1 346.6807 185.3476
  A 13.14 12.87 -0.6 0 1 359.6852 172.3407
  A 13.14 12.87 -0.6 0 1 372.9593 185.0724
  Z
  M 367.59 185.21
  A 7.76 7.76 0.0 0 0 359.83 177.45
  A 7.76 7.76 0.0 0 0 352.07 185.21
  A 7.76 7.76 0.0 0 0 359.83 192.97
  A 7.76 7.76 0.0 0 0 367.59 185.21
  Z"
/>
<path fill="#000000" d="
  M 439.78 198.58
  Q 439.90 198.74 440.62 198.98
  Q 440.92 199.09 441.37 199.60
  C 444.85 203.60 439.14 206.16 435.91 205.51
  A 1.30 1.30 0.0 0 1 435.81 202.99
  Q 436.03 202.92 437.47 202.98
  A 1.27 1.10 -21.5 0 0 438.52 200.98
  Q 438.05 200.61 437.15 200.62
  Q 436.12 200.63 435.96 200.25
  Q 435.80 199.83 436.26 198.88
  A 0.72 0.72 0.0 0 0 435.81 197.87
  Q 424.31 194.61 425.83 182.65
  Q 426.53 177.16 432.15 173.94
  C 439.13 169.95 447.50 173.51 449.93 181.42
  A 0.59 0.58 -8.7 0 1 449.37 182.18
  L 445.65 182.18
  A 1.23 1.20 -15.0 0 1 444.60 181.59
  Q 441.44 176.24 436.11 177.86
  C 428.34 180.22 429.57 192.87 438.23 192.92
  Q 442.79 192.95 444.81 188.14
  A 0.42 0.41 -78.0 0 1 445.19 187.89
  L 449.96 187.89
  A 0.20 0.20 0.0 0 1 450.15 188.14
  Q 448.11 196.42 440.05 197.90
  A 0.43 0.43 0.0 0 0 439.78 198.58
  Z"
/>
<path fill="#000000" d="
  M 524.37 180.40
  L 521.14 180.40
  A 1.00 0.99 -12.7 0 1 520.24 179.84
  Q 518.33 175.96 514.03 177.90
  A 1.76 1.76 0.0 0 0 513.31 180.52
  Q 513.99 181.50 515.61 181.90
  C 520.25 183.07 525.74 183.99 526.10 189.80
  C 526.74 200.24 508.36 201.13 507.35 190.19
  A 0.57 0.57 0.0 0 1 507.92 189.56
  L 511.83 189.56
  A 0.80 0.79 78.1 0 1 512.56 190.04
  Q 514.44 194.41 519.20 192.43
  A 2.44 2.33 -21.7 0 0 520.58 189.41
  C 519.98 187.84 516.91 187.38 514.30 186.70
  C 509.98 185.56 506.92 183.26 507.81 178.38
  C 508.82 172.81 514.49 172.17 519.02 172.70
  Q 523.70 173.24 525.44 178.94
  A 1.13 1.13 0.0 0 1 524.37 180.40
  Z"
/>
<path fill="#000000" d="
  M 605.0795 185.0954
  A 13.13 12.87 -0.5 0 1 592.0623 198.0795
  A 13.13 12.87 -0.5 0 1 578.8205 185.3246
  A 13.13 12.87 -0.5 0 1 591.8377 172.3405
  A 13.13 12.87 -0.5 0 1 605.0795 185.0954
  Z
  M 599.72 185.21
  A 7.76 7.76 0.0 0 0 591.96 177.45
  A 7.76 7.76 0.0 0 0 584.20 185.21
  A 7.76 7.76 0.0 0 0 591.96 192.97
  A 7.76 7.76 0.0 0 0 599.72 185.21
  Z"
/>
<path fill="#000000" d="
  M 680.49 189.42
  A 0.45 0.45 0.0 0 0 680.11 188.72
  L 674.14 188.72
  A 0.77 0.77 0.0 0 1 673.37 187.95
  L 673.37 185.52
  A 0.86 0.85 -0.0 0 1 674.23 184.67
  L 685.76 184.67
  A 0.60 0.59 0.9 0 1 686.36 185.28
  Q 686.14 191.60 681.53 195.46
  C 678.02 198.39 672.03 198.84 667.91 196.58
  C 659.17 191.77 658.55 178.63 668.06 173.78
  C 674.60 170.45 683.95 173.39 685.86 181.10
  A 0.53 0.52 -6.9 0 1 685.35 181.75
  L 681.33 181.75
  A 1.04 1.04 0.0 0 1 680.48 181.31
  Q 677.07 176.28 671.66 177.84
  C 664.34 179.95 665.03 191.84 672.64 192.81
  Q 677.80 193.47 680.49 189.42
  Z"
/>
<path fill="#000000" d="
  M 709.58 185.35
  C 709.74 193.35 719.54 195.94 723.28 188.62
  A 1.35 1.34 -76.3 0 1 724.48 187.89
  L 728.27 187.89
  A 0.47 0.47 0.0 0 1 728.73 188.49
  C 724.67 203.08 704.48 200.01 704.19 185.46
  C 703.91 170.90 723.97 167.05 728.59 181.48
  A 0.47 0.47 0.0 0 1 728.16 182.09
  L 724.37 182.24
  A 1.35 1.34 74.1 0 1 723.15 181.55
  C 719.12 174.38 709.42 177.35 709.58 185.35
  Z"
/>
<path fill="#000000" d="
  M 777.62 180.40
  L 774.39 180.40
  A 1.00 0.99 -12.7 0 1 773.49 179.84
  Q 771.58 175.96 767.28 177.90
  A 1.76 1.76 0.0 0 0 766.56 180.52
  Q 767.24 181.50 768.86 181.90
  C 773.50 183.07 779.00 183.99 779.36 189.81
  C 780.00 200.26 761.60 201.15 760.59 190.20
  A 0.58 0.57 87.3 0 1 761.16 189.57
  L 765.08 189.57
  A 0.80 0.79 78.1 0 1 765.81 190.05
  Q 767.69 194.42 772.45 192.44
  A 2.44 2.33 -21.8 0 0 773.83 189.42
  C 773.23 187.85 770.16 187.39 767.55 186.71
  C 763.22 185.57 760.16 183.26 761.05 178.38
  C 762.06 172.80 767.74 172.16 772.27 172.69
  Q 776.95 173.23 778.70 178.94
  A 1.13 1.13 0.0 0 1 777.62 180.40
  Z"
/>
<path fill="#000000" d="
  M 384.50 173.54
  L 384.50 191.93
  A 0.66 0.66 0.0 0 0 385.16 192.59
  L 393.28 192.59
  A 0.66 0.66 0.0 0 1 393.94 193.25
  L 393.94 196.84
  A 0.66 0.66 0.0 0 1 393.28 197.50
  L 379.86 197.50
  A 0.66 0.66 0.0 0 1 379.20 196.84
  L 379.20 173.54
  A 0.66 0.66 0.0 0 1 379.86 172.88
  L 383.84 172.88
  A 0.66 0.66 0.0 0 1 384.50 173.54
  Z"
/>
<path fill="#000000" d="
  M 409.47 193.02
  C 413.56 193.02 414.40 189.72 414.35 186.14
  Q 414.30 182.48 414.34 173.50
  A 0.62 0.62 0.0 0 1 414.96 172.88
  L 418.99 172.88
  A 0.61 0.61 0.0 0 1 419.60 173.49
  Q 419.65 187.46 419.65 187.48
  C 419.71 193.76 415.62 198.03 409.47 198.03
  C 403.31 198.02 399.23 193.75 399.29 187.47
  Q 399.29 187.45 399.35 173.48
  A 0.61 0.61 0.0 0 1 399.96 172.87
  L 403.99 172.88
  A 0.62 0.62 0.0 0 1 404.61 173.50
  Q 404.64 182.48 404.59 186.14
  C 404.54 189.72 405.38 193.01 409.47 193.02
  Z"
/>
<path fill="#000000" d="
  M 500.88 185.13
  Q 500.89 186.87 500.89 186.90
  A 0.66 0.66 0.0 0 1 500.23 187.57
  L 493.18 187.57
  A 0.77 0.77 0.0 0 0 492.41 188.34
  L 492.41 191.79
  A 0.76 0.75 90.0 0 0 493.16 192.55
  L 501.41 192.55
  A 0.67 0.67 0.0 0 1 502.08 193.22
  L 502.08 196.82
  A 0.67 0.66 -0.0 0 1 501.41 197.48
  L 487.61 197.48
  A 0.43 0.43 0.0 0 1 487.18 197.07
  Q 487.15 196.09 487.08 185.22
  Q 487.01 174.35 487.03 173.36
  A 0.43 0.43 0.0 0 1 487.46 172.95
  L 501.25 172.78
  A 0.67 0.66 -0.7 0 1 501.93 173.43
  L 501.98 177.03
  A 0.67 0.67 0.0 0 1 501.32 177.71
  L 493.07 177.81
  A 0.76 0.75 89.3 0 0 492.33 178.58
  L 492.37 182.03
  A 0.77 0.77 0.0 0 0 493.15 182.79
  L 500.20 182.70
  A 0.66 0.66 0.0 0 1 500.87 183.36
  Q 500.87 183.40 500.88 185.13
  Z"
/>
<rect fill="#000000" x="567.44" y="172.85" width="5.26" height="24.64" rx="0.69"/>
<path fill="#000000" d="
  M 611.33 173.59
  A 0.72 0.71 -0.4 0 1 612.04 172.88
  L 615.95 172.86
  A 0.68 0.68 0.0 0 1 616.63 173.54
  L 616.63 191.81
  A 0.78 0.77 89.6 0 0 617.41 192.59
  L 625.31 192.57
  A 0.76 0.76 0.0 0 1 626.07 193.33
  L 626.08 196.78
  A 0.71 0.71 0.0 0 1 625.37 197.50
  L 612.09 197.49
  A 0.75 0.74 -0.0 0 1 611.34 196.75
  L 611.33 173.59
  Z"
/>
<rect fill="#000000" x="692.58" y="172.87" width="5.28" height="24.62" rx="0.71"/>
<path fill="#000000" d="
  M 744.42 192.84
  Q 740.89 192.85 740.33 192.85
  A 1.08 1.06 10.2 0 0 739.34 193.53
  L 738.02 196.84
  A 1.12 1.11 10.8 0 1 736.98 197.54
  L 733.05 197.54
  A 0.68 0.67 10.7 0 1 732.42 196.62
  L 741.67 173.43
  A 0.85 0.83 9.3 0 1 742.42 172.91
  Q 742.90 172.89 744.35 172.88
  Q 745.80 172.88 746.28 172.89
  A 0.85 0.83 -9.7 0 1 747.03 173.41
  L 756.44 196.54
  A 0.68 0.67 -11.0 0 1 755.82 197.46
  L 751.89 197.49
  A 1.12 1.11 -11.2 0 1 750.84 196.80
  L 749.50 193.50
  A 1.08 1.06 -10.6 0 0 748.50 192.83
  Q 747.95 192.83 744.42 192.84
  Z
  M 741.33 187.78
  A 0.32 0.32 0.0 0 0 741.63 188.21
  L 747.16 188.20
  A 0.32 0.32 0.0 0 0 747.46 187.77
  L 744.68 180.20
  A 0.32 0.32 0.0 0 0 744.08 180.20
  L 741.33 187.78
  Z"
/>
<path fill="#000000" d="
  M 558.37 184.97
  C 563.51 190.12 560.37 197.10 553.48 197.48
  Q 550.07 197.66 543.49 197.52
  A 0.71 0.71 0.0 0 1 542.80 196.81
  L 542.80 173.42
  A 0.50 0.50 0.0 0 1 543.30 172.92
  Q 551.72 172.92 553.00 172.94
  C 559.24 173.03 562.72 178.63 558.33 183.93
  A 0.78 0.77 -47.3 0 0 558.37 184.97
  Z
  M 547.99 177.96
  L 547.97 182.12
  A 0.55 0.55 0.0 0 0 548.51 182.68
  L 552.20 182.70
  A 2.94 2.44 0.4 0 0 555.16 180.29
  L 555.16 179.91
  A 2.94 2.44 0.4 0 0 552.24 177.44
  L 548.55 177.42
  A 0.55 0.55 0.0 0 0 547.99 177.96
  Z
  M 547.99 187.73
  L 547.97 191.99
  A 0.65 0.65 0.0 0 0 548.62 192.64
  L 552.50 192.66
  A 3.11 2.67 0.3 0 0 555.62 190.01
  L 555.62 189.79
  A 3.11 2.67 0.3 0 0 552.52 187.10
  L 548.64 187.08
  A 0.65 0.65 0.0 0 0 547.99 187.73
  Z"
/>
</svg>
